<?xml version="1.0" encoding="utf-8"?>
<!-- Generator: Adobe Illustrator 22.0.1, SVG Export Plug-In . SVG Version: 6.00 Build 0)  -->
<svg version="1.1" id="Layer_1" xmlns="http://www.w3.org/2000/svg" xmlns:xlink="http://www.w3.org/1999/xlink" x="0px" y="0px"
	 viewBox="0 0 792 612" style="enable-background:new 0 0 792 612;" xml:space="preserve">
<style type="text/css">
	.st0{fill:#FFFFFF;stroke:#000000;stroke-miterlimit:10;}
	.st1{font-family:'BankGothicBT-Light';}
	.st2{font-size:91.7789px;}
	.st3{fill:none;stroke:#000000;stroke-miterlimit:10;}
	.st4{fill:#D52329;stroke:#000000;stroke-miterlimit:10;}
	.st5{fill:#253873;stroke:#000000;stroke-miterlimit:10;}
	.st6{fill:#D52229;}
	.st7{fill:none;stroke:#D52329;stroke-miterlimit:10;}
	.st8{fill:#AFB9D3;stroke:#000000;stroke-miterlimit:10;}
	.st9{fill:#2D4C9B;stroke:#000000;stroke-miterlimit:10;}
	.st10{fill:none;}
</style>
<text transform="matrix(0.8237 -6.737165e-03 8.041837e-03 1 343.0344 245.0865)" class="st0 st1 st2">V.S</text>
<g>
	<path class="st3" d="M178.7,275l3.1-10.2c0,0,28.1,7.3,36.7,31.4c0,0,35.4-3.3,89.6-29.3c0,0,7.7-14.3-17.5-2
		c0,0-33,15.9-46.6,17.1l-39.7-59.5c0,0,24.9-27.3,64.8-32.6c0,0,11.4-11.4-13.9-5.3"/>
	<line class="st3" x1="199.8" y1="229.4" x2="234.4" y2="283.6"/>
	<line class="st3" x1="237.4" y1="293" x2="245.9" y2="307.6"/>
	<path class="st3" d="M248.3,316.2c0,0,12.6,36.3,72.9,0l-18.1-46.9l-8.7,3.9l14.9,37.7c0,0,3.4,12.6-36.6,13.4c0,0-11-0.4-15.5-8.6
		L237,271.5"/>
	<path class="st4" d="M178.7,287.8l-1.8,8.4c4.9,4.9,33.4,10.2,33.4,10.2c37.5,9,86.4-10.2,86.4-10.2c31.4-17.8,26.5-4.1,26.5-4.1
		c-5.3,9.4-59.9,22.4-59.9,22.4c-40.3,6.9-88-10.2-88-10.2s-5.7,16.1-7.3-2l-19.6-13c0,0-0.6-9.8,6.9-4.5s13.4,8.6,13.4,8.6l1.5-6.4
		"/>
	<path class="st3" d="M200.4,233.4c0,0-6.3,20.3,3.6,30.6"/>
	<path class="st3" d="M205.9,280.3c0,0,4.9,10.2,0,22"/>
	<path class="st5" d="M202,313.7c0,0-10.8,26.9-41.3,28.5c0,0-22,0.5-36.7-10c0,0-19.6-10.8-27.7-7.2l-23.6,13
		c0,0-76.6-83.5-26.9-159.3s171.9-70.9,209.4,5.7c0,0-53.4,15.7-68.9,46.8l-13.9,42.5l18.7,3.7c0,0,12.6,15.1-15.9,9.8
		c0,0-16.7,0.8-12.6-9c0,0-1.4-6.5,7.3-4.9c8.7,1.6,8.7,1.6,8.7,1.6"/>
	<path class="st3" d="M234.4,285.6l-10.2,2.6c0,0-8.8-23-39.1-30.6c0,0,7.9-25.3,19.2-35.2"/>
	<path class="st3" d="M244,164.8c0,0,11.2,3.3,16.9,15.1c0,0,11.2-5.1,14.1,3.9c0,0,3.7,9.2-3.7,10.2c0,0-4.2-0.3-6-3.5"/>
	<path class="st3" d="M273.9,194c0,0,12.4,0.6,1.9,10.4l-17.4,5.1l-20.2-1c0,0-20.4,5.3-28.5,15.7"/>
	<polyline class="st3" points="259.9,194 263.1,200.3 239.3,207.4 	"/>
	<path class="st6" d="M155.4,282c0,0-2.3-16.3-20.5-11.8c0,0-15.5,3.7-9.6,22c0,0,8.8,14.1,22.4,6.5c0,0,6.6-4.3,6.8-5.9"/>
	<path class="st7" d="M162.9,272.8c0,0-7.3-22.2-35-12.2c0,0-17.7,5.9-14.3,30.8c0,0,5.3,21.4,27.5,19.8c0,0,12.2-1.5,20.4-11.4"/>
</g>
<g>
	<path class="st3" d="M634.9,269.4L632,260c0,0-26,6.8-33.9,29c0,0-32.8-3-82.9-27.1c0,0-7.2-13.2,16.2-1.9c0,0,30.5,14.7,43.1,15.8
		l36.8-55c0,0-23-25.2-59.9-30.1c0,0-10.6-10.6,12.8-4.9"/>
	<line class="st3" x1="615.4" y1="227.2" x2="583.4" y2="277.3"/>
	<line class="st3" x1="580.6" y1="286" x2="572.7" y2="299.6"/>
	<path class="st3" d="M570.5,307.5c0,0-11.7,33.5-67.4,0l16.7-43.4l8,3.6l-13.8,34.8c0,0-3.1,11.7,33.8,12.4c0,0,10.2-0.4,14.3-7.9
		l18.7-40.9"/>
	<path class="st4" d="M634.9,281.3l1.6,7.8c-4.5,4.5-30.9,9.4-30.9,9.4c-34.7,8.3-79.9-9.4-79.9-9.4c-29-16.5-24.5-3.8-24.5-3.8
		c4.9,8.7,55.4,20.7,55.4,20.7c37.3,6.4,81.4-9.4,81.4-9.4s5.3,14.9,6.8-1.9l18.1-12.1c0,0,0.6-9-6.4-4.1c-7,4.9-12.4,7.9-12.4,7.9
		l-1.3-5.9"/>
	<path class="st3" d="M614.8,230.9c0,0,5.9,18.8-3.3,28.3"/>
	<path class="st3" d="M609.7,274.3c0,0-4.5,9.4,0,20.3"/>
	<path class="st8" d="M613.3,305.2c0,0,10,24.9,38.2,26.4c0,0,20.3,0.4,33.9-9.2c0,0,18.1-10,25.6-6.6l21.9,12.1
		c0,0,70.8-77.2,24.9-147.3c-46-70.1-159-65.6-193.7,5.3c0,0,49.4,14.5,63.7,43.3l12.8,39.3l-17.3,3.4c0,0-11.7,13.9,14.7,9
		c0,0,15.4,0.8,11.7-8.3c0,0,1.3-6-6.8-4.5c-8,1.5-8,1.5-8,1.5"/>
	<path class="st3" d="M583.4,279.2l9.4,2.4c0,0,8.1-21.3,36.2-28.3c0,0-7.3-23.4-17.7-32.6"/>
	<path class="st3" d="M574.5,167.5c0,0-10.3,3-15.6,13.9c0,0-10.4-4.7-13,3.6c0,0-3.4,8.5,3.4,9.4c0,0,3.9-0.3,5.5-3.2"/>
	<path class="st3" d="M546.8,194.4c0,0-11.5,0.6-1.8,9.6l16.1,4.7l18.7-0.9c0,0,18.8,4.9,26.4,14.5"/>
	<polyline class="st3" points="559.8,194.4 556.8,200.3 578.8,206.9 	"/>
	<path class="st9" d="M656.5,275.8c0,0,2.1-15.1,19-10.9c0,0,14.3,3.4,8.9,20.3c0,0-8.1,13-20.7,6c0,0-6.1-4-6.3-5.5"/>
	<path class="st7" d="M649.5,267.4c0,0,6.8-20.5,32.4-11.3c0,0,16.4,5.5,13.2,28.4c0,0-4.9,19.8-25.4,18.3c0,0-11.3-1.4-18.8-10.5"
		/>
</g>
<path id="SVGID_x5F_1_x5F_" class="st10" d="M44.8,229.2c38.4,4.7,130.6-20.3,153.6-45.2"/>
<text><textPath  xlink:href="#SVGID_x5F_1_x5F_" startOffset="19.2769%">
<tspan  style="fill:#FFFFFF; font-family:'Impact'; font-size:20.3765px;">  </tspan><tspan  style="fill:#D52329; font-family:'Impact'; font-size:20.3765px;">NY Giants</tspan></textPath>
</text>
<path id="SVGID_x5F_2_x5F_" class="st10" d="M635.7,189.8c22.2,22.6,93,45.8,119.7,35.6"/>
<text><textPath  xlink:href="#SVGID_x5F_2_x5F_" startOffset="19.165%">
<tspan  style="fill:#FFFFFF; font-family:'Impact'; font-size:20.3765px;"> </tspan><tspan  style="fill:#AFB9D3; font-family:'Impact'; font-size:20.3765px;"> </tspan><tspan  style="fill:#FFFFFF; font-family:'Impact'; font-size:20.3765px;">Patriots</tspan></textPath>
</text>
</svg>
