<?xml version="1.0" encoding="utf-8"?>
<!-- Generator: Adobe Illustrator 22.0.1, SVG Export Plug-In . SVG Version: 6.00 Build 0)  -->
<svg version="1.1" id="Layer_1" xmlns="http://www.w3.org/2000/svg" xmlns:xlink="http://www.w3.org/1999/xlink" x="0px" y="0px"
	 viewBox="0 0 792 612" style="enable-background:new 0 0 792 612;" xml:space="preserve">
<style type="text/css">
	.st0{fill:none;stroke:#000000;stroke-miterlimit:10;}
	.st1{fill:#D52329;stroke:#000000;stroke-miterlimit:10;}
	.st2{fill:#835E2C;stroke:#000000;stroke-miterlimit:10;}
	.st3{fill:#D52329;}
	.st4{fill:none;stroke:#D52329;stroke-miterlimit:10;}
	.st5{fill:none;}
	.st6{font-family:'MyriadPro-Regular';}
	.st7{font-size:50px;}
	.st8{fill:#AFB9D3;stroke:#000000;stroke-miterlimit:10;}
	.st9{stroke:#000000;stroke-miterlimit:10;}
	.st10{fill:#AFB9D3;}
	.st11{fill:none;stroke:#AFB9D3;stroke-miterlimit:10;}
	.st12{font-family:'BankGothicBT-Light';}
	.st13{font-size:60px;}
</style>
<g>
	<path class="st0" d="M204,195.7l3.8-12.5c0,0,34.5,9,45,38.5c0,0,43.5-4,110-36c0,0,9.5-17.5-21.5-2.5c0,0-40.5,19.5-57.2,21
		l-48.8-73c0,0,30.5-33.5,79.5-40c0,0,14-14-17-6.5"/>
	<line class="st0" x1="229.8" y1="139.7" x2="272.3" y2="206.2"/>
	<line class="st0" x1="276" y1="217.7" x2="286.5" y2="235.6"/>
	<path class="st0" d="M289.3,246.2c0,0,15.5,44.5,89.5,0l-22.2-57.6l-10.7,4.8l18.3,46.2c0,0,4.1,15.5-44.9,16.5
		c0,0-13.5-0.5-19-10.5l-24.8-54.3"/>
	<path class="st1" d="M204,211.4l-2.2,10.3c6,6,41,12.5,41,12.5c46,11,106-12.5,106-12.5c38.5-21.9,32.5-5,32.5-5
		c-6.5,11.5-73.5,27.5-73.5,27.5c-49.5,8.5-108-12.5-108-12.5s-7,19.8-9-2.5l-24-16c0,0-0.8-12,8.5-5.5s16.5,10.5,16.5,10.5l1.8-7.8
		"/>
	<path class="st0" d="M230.6,144.6c0,0-7.8,24.9,4.4,37.6"/>
	<path class="st0" d="M237.3,202.2c0,0,6,12.5,0,27"/>
	<path class="st2" d="M232.6,243.2c0,0-13.2,33-50.7,35c0,0-27,0.6-45-12.2c0,0-24-13.3-34-8.8l-29,16c0,0-94-102.5-33-195.5
		s211-87,257,7c0,0-65.5,19.3-84.5,57.4l-17,52.1l23,4.5c0,0,15.5,18.5-19.5,12c0,0-20.5,1-15.5-11c0,0-1.7-8,9-6s10.7,2,10.7,2"/>
	<path class="st0" d="M272.3,208.7l-12.5,3.3c0,0-10.8-28.3-48-37.5c0,0,9.7-31.1,23.5-43.3"/>
	<path class="st0" d="M284.1,60.4c0,0,13.7,4,20.7,18.5c0,0,13.8-6.3,17.3,4.8c0,0,4.5,11.3-4.5,12.5c0,0-5.2-0.4-7.3-4.3"/>
	<path class="st0" d="M320.8,96.2c0,0,15.3,0.8,2.4,12.8l-21.4,6.3l-24.8-1.3c0,0-25,6.5-35,19.3"/>
	<polyline class="st0" points="303.7,96.2 307.6,103.9 278.3,112.7 	"/>
	<path class="st3" d="M175.3,204.2c0,0-2.8-20-25.2-14.5c0,0-19,4.5-11.8,27c0,0,10.8,17.3,27.5,8c0,0,8.2-5.3,8.3-7.3"/>
	<path class="st4" d="M184.6,192.9c0,0-9-27.3-43-15c0,0-21.8,7.3-17.5,37.8c0,0,6.5,26.3,33.8,24.3c0,0,15-1.8,25-14"/>
</g>
<path id="SVGID_x5F_1_x5F_" class="st5" d="M40.3,116.4c48.2,27,199.4-20.6,213.6-48.4"/>
<text class="st6 st7"><textPath  xlink:href="#SVGID_x5F_1_x5F_" startOffset="19.397%">
 </textPath>
</text>
<g>
	<path class="st0" d="M591.2,494.1l-3.8-12.5c0,0-34.5,9-45,38.5c0,0-43.5-4-110-36c0,0-9.5-17.5,21.5-2.5c0,0,40.5,19.5,57.2,21
		l48.8-73c0,0-30.5-33.5-79.5-40c0,0-14-14,17-6.5"/>
	<line class="st0" x1="565.4" y1="438.1" x2="522.9" y2="504.6"/>
	<line class="st0" x1="519.3" y1="516.1" x2="508.8" y2="534.1"/>
	<path class="st0" d="M505.9,544.6c0,0-15.5,44.5-89.5,0l22.2-57.6l10.7,4.8L431,538.1c0,0-4.1,15.5,44.9,16.5c0,0,13.5-0.5,19-10.5
		l24.8-54.3"/>
	<path class="st8" d="M591.2,509.8l2.2,10.3c-6,6-41,12.5-41,12.5c-46,11-106-12.5-106-12.5c-38.5-21.9-32.5-5-32.5-5
		c6.5,11.5,73.5,27.5,73.5,27.5c49.5,8.5,108-12.5,108-12.5s7,19.8,9-2.5l24-16c0,0,0.8-12-8.5-5.5c-9.3,6.5-16.5,10.5-16.5,10.5
		l-1.8-7.8"/>
	<path class="st0" d="M564.7,443c0,0,7.8,24.9-4.4,37.6"/>
	<path class="st0" d="M557.9,500.6c0,0-6,12.5,0,27"/>
	<path class="st9" d="M562.7,541.6c0,0,13.2,33,50.7,35c0,0,27,0.6,45-12.2c0,0,24-13.3,34-8.8l29,16c0,0,94-102.5,33-195.5
		s-211-87-257,7c0,0,65.5,19.3,84.5,57.4l17,52.1l-23,4.5c0,0-15.5,18.5,19.5,12c0,0,20.5,1,15.5-11c0,0,1.7-8-9-6s-10.7,2-10.7,2"
		/>
	<path class="st0" d="M522.9,507.1l12.5,3.3c0,0,10.8-28.3,48-37.5c0,0-9.7-31.1-23.5-43.3"/>
	<path class="st0" d="M511.1,358.8c0,0-13.7,4-20.7,18.5c0,0-13.8-6.3-17.3,4.8c0,0-4.5,11.3,4.5,12.5c0,0,5.2-0.4,7.3-4.3"/>
	<path class="st0" d="M474.4,394.6c0,0-15.3,0.8-2.4,12.8l21.4,6.3l24.8-1.3c0,0,25,6.5,35,19.3"/>
	<polyline class="st0" points="491.6,394.6 487.7,402.3 516.9,411.1 	"/>
	<path class="st10" d="M619.9,502.6c0,0,2.8-20,25.2-14.5c0,0,19,4.5,11.8,27c0,0-10.8,17.3-27.5,8c0,0-8.2-5.3-8.3-7.3"/>
	<path class="st11" d="M610.7,491.3c0,0,9-27.3,43-15c0,0,21.8,7.3,17.5,37.7c0,0-6.5,26.3-33.8,24.3c0,0-15-1.8-25-14"/>
</g>
<text transform="matrix(1 0 0 1 376.0703 307.1548)" class="st12 st13">VS</text>
<path id="SVGID_x5F_2_x5F_" class="st5" d="M28.1,114.9c36.3,36,213.9,5.5,237-39.6"/>
<text><textPath  xlink:href="#SVGID_x5F_2_x5F_" startOffset="21.3135%">
<tspan  style="fill:#FFFFFF; font-family:'Impact'; font-size:38px;">Buccaneers</tspan></textPath>
</text>
<path id="SVGID_x5F_3_x5F_" class="st5" d="M533.3,361.8c19.9,47.1,195.8,86.4,234.3,53.5"/>
<text><textPath  xlink:href="#SVGID_x5F_3_x5F_" startOffset="21.3135%">
<tspan  class="st10 st7" style="font-family:'Impact';">Raiders</tspan></textPath>
</text>
</svg>
