<?xml version="1.0" encoding="utf-8"?>
<!-- Generator: Adobe Illustrator 22.0.1, SVG Export Plug-In . SVG Version: 6.00 Build 0)  -->
<svg version="1.1" id="Layer_1" xmlns="http://www.w3.org/2000/svg" xmlns:xlink="http://www.w3.org/1999/xlink" x="0px" y="0px"
	 viewBox="0 0 792 612" style="enable-background:new 0 0 792 612;" xml:space="preserve">
<style type="text/css">
	.st0{fill:none;stroke:#000000;stroke-miterlimit:10;}
	.st1{fill:#D52629;stroke:#000000;stroke-miterlimit:10;}
	.st2{fill:#B25D28;stroke:#000000;stroke-miterlimit:10;}
	.st3{fill:#D42729;stroke:#000000;stroke-miterlimit:10;}
	.st4{fill:none;stroke:#D42729;stroke-miterlimit:10;}
	.st5{fill:none;}
	.st6{fill:#8B51A0;stroke:#000000;stroke-miterlimit:10;}
	.st7{stroke:#000000;stroke-miterlimit:10;}
	.st8{fill:#A16628;}
	.st9{fill:none;stroke:#8B51A0;stroke-miterlimit:10;}
</style>
<g>
	<path d="M380.8,338.3l-21.7-47.2l7-0.1l17.6,39.3l16.1-39.6l6.5-0.1l-20,47.5L380.8,338.3z"/>
	<path d="M452.2,296.8l-27.6,0.2l0.1,13.2l24.6-0.2c3.5,0,5.9,0.7,7.1,2.3c1.3,1.5,2,4.5,2,8.8l0,5.3c0,4.4-0.6,7.3-1.8,8.9
		c-1.2,1.6-3.6,2.4-7.1,2.4l-22.8,0.2c-3.5,0-6-0.7-7.3-2.3c-1.3-1.6-2-4.5-2-8.8l0-1.3l6-1.8l0.1,7.6l29.1-0.2l-0.1-14.3l-24.5,0.2
		c-3.5,0-5.9-0.7-7.2-2.3c-1.3-1.6-1.9-4.5-2-8.8l0-4.1c0-4.3,0.6-7.3,1.8-8.9c1.2-1.6,3.6-2.4,7.2-2.4l20.8-0.2
		c3.5,0,5.9,0.7,7.2,2.2c1.3,1.5,2,4.2,2,8.1l0,1l-5.6,2L452.2,296.8z"/>
</g>
<g>
	<g>
		<path class="st0" d="M580.1,503.1l-4.3-14c0,0-38.7,10.1-50.5,43.2c0,0-48.8-4.5-123.5-40.4c0,0-10.7-19.6,24.1-2.8
			c0,0,45.4,21.9,64.3,23.6l54.8-82c0,0-34.2-37.6-89.3-44.9c0,0-15.7-15.7,19.1-7.3"/>
		<line class="st0" x1="551.1" y1="440.2" x2="503.4" y2="514.8"/>
		<line class="st0" x1="499.3" y1="527.8" x2="487.5" y2="547.9"/>
		<path class="st0" d="M484.3,559.8c0,0-17.4,50-100.5,0l25-64.6l12,5.4l-20.5,51.9c0,0-4.6,17.4,50.4,18.5c0,0,15.2-0.6,21.3-11.8
			l27.8-61"/>
		<path class="st1" d="M580.1,520.7l2.4,11.6c-6.7,6.7-46,14-46,14c-51.6,12.4-119-14-119-14c-43.3-24.6-36.5-5.6-36.5-5.6
			c7.3,12.9,82.5,30.9,82.5,30.9c55.6,9.5,121.3-14,121.3-14s7.9,22.2,10.1-2.8l26.9-18c0,0,0.8-13.5-9.5-6.2
			c-10.4,7.3-18.5,11.8-18.5,11.8l-2-8.8"/>
		<path class="st0" d="M550.2,445.7c0,0,8.7,28-5,42.2"/>
		<path class="st0" d="M542.7,510.3c0,0-6.7,14,0,30.3"/>
		<path class="st2" d="M548,556.4c0,0,14.8,37.1,56.9,39.3c0,0,30.3,0.6,50.5-13.7c0,0,26.9-14.9,38.2-9.9l32.6,18
			c0,0,105.5-115.1,37.1-219.5s-236.9-97.7-288.6,7.9c0,0,73.5,21.7,94.9,64.4l19.1,58.5l-25.8,5.1c0,0-17.4,20.8,21.9,13.5
			c0,0,23,1.1,17.4-12.4c0,0,1.9-9-10.1-6.7c-12,2.2-12,2.2-12,2.2"/>
		<path class="st0" d="M503.4,517.6l14,3.6c0,0,12.1-31.7,53.9-42.1c0,0-10.9-34.9-26.4-48.6"/>
		<path class="st0" d="M490.1,351.2c0,0-15.4,4.5-23.3,20.8c0,0-15.4-7-19.4,5.3c0,0-5.1,12.6,5.1,14c0,0,5.8-0.4,8.2-4.8"/>
		<path class="st0" d="M448.9,391.3c0,0-17.1,0.8-2.7,14.3l24,7l27.8-1.4c0,0,28.1,7.3,39.3,21.6"/>
		<polyline class="st0" points="468.2,391.3 463.8,400 496.6,409.9 		"/>
		<path class="st3" d="M612.3,512.6c0,0,3.2-22.5,28.2-16.3c0,0,21.3,5.1,13.3,30.3c0,0-12.1,19.4-30.8,9c0,0-9.2-5.9-9.3-8.2"/>
		<path class="st4" d="M601.9,500c0,0,10.1-30.6,48.3-16.8c0,0,24.4,8.1,19.6,42.4c0,0-7.3,29.5-37.9,27.2c0,0-16.9-2-28.1-15.7"/>
	</g>
	<path id="SVGID_x5F_1_x5F_" class="st5" d="M543.6,368.1c44.4,36.8,180.1,79.5,229,66.7"/>
	<text>	<textPath  xlink:href="#SVGID_x5F_1_x5F_" startOffset="19.2769%">
<tspan  style="fill:#D42729; font-family:'Impact'; font-size:50px;">  49ers</tspan><tspan  style="fill:#D52329; font-family:'Impact'; font-size:30.3593px;"> </tspan>	</textPath>
</text>
</g>
<g>
	<g>
		<path class="st0" d="M201.2,197.6l4-13.1c0,0,36.1,9.4,47.1,40.3c0,0,45.6-4.2,115.3-37.7c0,0,10-18.3-22.5-2.6
			c0,0-42.4,20.4-60,22L234,130.1c0,0,32-35.1,83.3-41.9c0,0,14.7-14.7-17.8-6.8"/>
		<line class="st0" x1="228.2" y1="139" x2="272.8" y2="208.7"/>
		<line class="st0" x1="276.6" y1="220.7" x2="287.6" y2="239.5"/>
		<path class="st0" d="M290.6,250.6c0,0,16.2,46.6,93.8,0l-23.3-60.3l-11.2,5l19.1,48.4c0,0,4.3,16.2-47,17.3c0,0-14.1-0.5-19.9-11
			l-26-56.9"/>
		<path class="st6" d="M201.2,214.1l-2.3,10.8c6.3,6.3,43,13.1,43,13.1c48.2,11.5,111.1-13.1,111.1-13.1
			c40.4-22.9,34.1-5.2,34.1-5.2c-6.8,12-77,28.8-77,28.8c-51.9,8.9-113.2-13.1-113.2-13.1s-7.3,20.7-9.4-2.6L162.2,216
			c0,0-0.8-12.6,8.9-5.8s17.3,11,17.3,11l1.9-8.2"/>
		<path class="st0" d="M229,144.1c0,0-8.2,26.1,4.6,39.4"/>
		<path class="st0" d="M236.1,204.5c0,0,6.3,13.1,0,28.3"/>
		<path class="st7" d="M231.1,247.4c0,0-13.8,34.6-53.1,36.7c0,0-28.3,0.6-47.1-12.8c0,0-25.1-13.9-35.6-9.2l-30.4,16.8
			c0,0-98.5-107.4-34.6-204.8s221.1-91.2,269.3,7.3c0,0-68.6,20.2-88.5,60.1l-17.8,54.6l24.1,4.7c0,0,16.2,19.4-20.4,12.6
			c0,0-21.5,1-16.2-11.5c0,0-1.7-8.4,9.4-6.3c11.2,2.1,11.2,2.1,11.2,2.1"/>
		<path class="st0" d="M272.8,211.3l-13.1,3.4c0,0-11.3-29.6-50.3-39.3c0,0,10.2-32.6,24.6-45.3"/>
		<path class="st0" d="M285.1,55.9c0,0,14.4,4.2,21.7,19.4c0,0,14.4-6.5,18.1,5c0,0,4.7,11.8-4.7,13.1c0,0-5.4-0.4-7.7-4.5"/>
		<path class="st0" d="M323.6,93.4c0,0,16,0.8,2.5,13.4l-22.4,6.5l-25.9-1.3c0,0-26.2,6.8-36.7,20.2"/>
		<polyline class="st0" points="305.6,93.4 309.7,101.5 279,110.7 		"/>
		<path class="st8" d="M171.1,206.6c0,0-3-21-26.4-15.2c0,0-19.9,4.7-12.4,28.3c0,0,11.3,18.1,28.8,8.4c0,0,8.5-5.5,8.7-7.6"/>
		<path class="st9" d="M180.8,194.8c0,0-9.4-28.6-45.1-15.7c0,0-22.8,7.6-18.3,39.6c0,0,6.8,27.5,35.4,25.4c0,0,15.7-1.9,26.2-14.6"
			/>
	</g>
	<path id="SVGID_x5F_2_x5F_" class="st5" d="M-4.4,128.5C71,152.2,245,110.8,284.9,49.8"/>
	<text>	<textPath  xlink:href="#SVGID_x5F_2_x5F_" startOffset="19.165%">
<tspan  style="fill:#707070; font-family:'Impact'; font-size:50px;">  </tspan><tspan  style="fill:#707070; font-family:'Impact'; font-size:56.5857px;"> </tspan><tspan  class="st8" style="font-family:'Impact'; font-size:56.5857px;">Ravens</tspan>	</textPath>
</text>
</g>
</svg>
