<?xml version="1.0" encoding="utf-8"?>
<!-- Generator: Adobe Illustrator 22.0.1, SVG Export Plug-In . SVG Version: 6.00 Build 0)  -->
<svg version="1.1" id="Layer_1" xmlns="http://www.w3.org/2000/svg" xmlns:xlink="http://www.w3.org/1999/xlink" x="0px" y="0px"
	 viewBox="0 0 792 612" style="enable-background:new 0 0 792 612;" xml:space="preserve">
<style type="text/css">
	.st0{fill:#4A5959;}
	.st1{fill:none;stroke:#000000;stroke-miterlimit:10;}
	.st2{fill:none;}
	.st3{font-family:'MyriadPro-Regular';}
	.st4{font-size:17.5294px;}
	.st5{font-family:'BankGothicBT-Light';}
	.st6{font-size:21.0353px;}
	.st7{fill:#FFFFFF;stroke:#000000;stroke-miterlimit:10;}
	.st8{font-size:16.0686px;}
</style>
<ellipse class="st0" cx="370.7" cy="248.4" rx="193" ry="184.5"/>
<g>
	<path class="st1" d="M306.8,206.7l1.3-4.4c0,0,12.1,3.2,15.8,13.5c0,0,15.3-1.4,38.6-12.6c0,0,3.3-6.1-7.5-0.9
		c0,0-14.2,6.8-20.1,7.4l-17.1-25.6c0,0,10.7-11.7,27.9-14c0,0,4.9-4.9-6-2.3"/>
	<line class="st1" x1="315.9" y1="187.1" x2="330.8" y2="210.4"/>
	<line class="st1" x1="332.1" y1="214.4" x2="335.8" y2="220.7"/>
	<path class="st1" d="M336.8,224.4c0,0,5.4,15.6,31.4,0l-7.8-20.2l-3.7,1.7l6.4,16.2c0,0,1.4,5.4-15.7,5.8c0,0-4.7-0.2-6.7-3.7
		l-8.7-19"/>
	<path class="st1" d="M306.8,212.2l-0.8,3.6c2.1,2.1,14.4,4.4,14.4,4.4c16.1,3.9,37.2-4.4,37.2-4.4c13.5-7.7,11.4-1.8,11.4-1.8
		c-2.3,4-25.8,9.6-25.8,9.6c-17.4,3-37.9-4.4-37.9-4.4s-2.5,6.9-3.2-0.9l-8.4-5.6c0,0-0.3-4.2,3-1.9s5.8,3.7,5.8,3.7l0.6-2.7"/>
	<path class="st1" d="M316.2,188.8c0,0-2.7,8.7,1.6,13.2"/>
	<path class="st1" d="M318.5,209c0,0,2.1,4.4,0,9.5"/>
	<path class="st1" d="M316.9,223.3c0,0-4.6,11.6-17.8,12.3c0,0-9.5,0.2-15.8-4.3c0,0-8.4-4.7-11.9-3.1l-10.2,5.6
		c0,0-33-35.9-11.6-68.5s74-30.5,90.1,2.5c0,0-23,6.8-29.6,20.1l-6,18.3l8.1,1.6c0,0,5.4,6.5-6.8,4.2c0,0-7.2,0.4-5.4-3.9
		c0,0-0.6-2.8,3.2-2.1c3.7,0.7,3.7,0.7,3.7,0.7"/>
	<path class="st1" d="M330.8,211.2l-4.4,1.1c0,0-3.8-9.9-16.8-13.1c0,0,3.4-10.9,8.2-15.2"/>
	<path class="st1" d="M334.9,159.3c0,0,4.8,1.4,7.3,6.5c0,0,4.8-2.2,6,1.7c0,0,1.6,3.9-1.6,4.4c0,0-1.8-0.1-2.6-1.5"/>
	<path class="st1" d="M347.8,171.8c0,0,5.3,0.3,0.8,4.5l-7.5,2.2l-8.7-0.4c0,0-8.8,2.3-12.3,6.7"/>
	<polyline class="st1" points="341.8,171.8 343.2,174.5 332.9,177.6 	"/>
	<path class="st1" d="M296.8,209.7c0,0-1-7-8.8-5.1c0,0-6.7,1.6-4.1,9.5c0,0,3.8,6,9.6,2.8c0,0,2.9-1.9,2.9-2.5"/>
	<path class="st1" d="M300,205.7c0,0-3.2-9.6-15.1-5.3c0,0-7.6,2.5-6.1,13.2c0,0,2.3,9.2,11.8,8.5c0,0,5.3-0.6,8.8-4.9"/>
</g>
<path id="SVGID_x5F_1_x5F_" class="st2" d="M249.5,178.9c16.9,9.5,69.9-7.2,74.9-17"/>
<text class="st3 st4"><textPath  xlink:href="#SVGID_x5F_1_x5F_" startOffset="19.397%">
 </textPath>
</text>
<g>
	<path class="st1" d="M442.6,311.3l-1.3-4.4c0,0-12.1,3.2-15.8,13.5c0,0-15.3-1.4-38.6-12.6c0,0-3.3-6.1,7.5-0.9
		c0,0,14.2,6.8,20.1,7.4l17.1-25.6c0,0-10.7-11.7-27.9-14c0,0-4.9-4.9,6-2.3"/>
	<line class="st1" x1="433.5" y1="291.7" x2="418.6" y2="315"/>
	<line class="st1" x1="417.4" y1="319" x2="413.7" y2="325.3"/>
	<path class="st1" d="M412.7,329c0,0-5.4,15.6-31.4,0l7.8-20.2l3.7,1.7l-6.4,16.2c0,0-1.4,5.4,15.7,5.8c0,0,4.7-0.2,6.7-3.7l8.7-19"
		/>
	<path class="st1" d="M442.6,316.8l0.8,3.6c-2.1,2.1-14.4,4.4-14.4,4.4c-16.1,3.9-37.2-4.4-37.2-4.4c-13.5-7.7-11.4-1.8-11.4-1.8
		c2.3,4,25.8,9.6,25.8,9.6c17.4,3,37.9-4.4,37.9-4.4s2.5,6.9,3.2-0.9l8.4-5.6c0,0,0.3-4.2-3-1.9c-3.2,2.3-5.8,3.7-5.8,3.7l-0.6-2.7"
		/>
	<path class="st1" d="M433.3,293.4c0,0,2.7,8.7-1.6,13.2"/>
	<path class="st1" d="M430.9,313.6c0,0-2.1,4.4,0,9.5"/>
	<path class="st1" d="M432.6,328c0,0,4.6,11.6,17.8,12.3c0,0,9.5,0.2,15.8-4.3c0,0,8.4-4.7,11.9-3.1l10.2,5.6c0,0,33-35.9,11.6-68.5
		s-74-30.5-90.1,2.5c0,0,23,6.8,29.6,20.1l6,18.3l-8.1,1.6c0,0-5.4,6.5,6.8,4.2c0,0,7.2,0.4,5.4-3.9c0,0,0.6-2.8-3.2-2.1
		c-3.7,0.7-3.7,0.7-3.7,0.7"/>
	<path class="st1" d="M418.6,315.9l4.4,1.1c0,0,3.8-9.9,16.8-13.1c0,0-3.4-10.9-8.2-15.2"/>
	<path class="st1" d="M414.5,263.9c0,0-4.8,1.4-7.3,6.5c0,0-4.8-2.2-6,1.7c0,0-1.6,3.9,1.6,4.4c0,0,1.8-0.1,2.6-1.5"/>
	<path class="st1" d="M401.6,276.4c0,0-5.3,0.3-0.8,4.5l7.5,2.2l8.7-0.4c0,0,8.8,2.3,12.3,6.7"/>
	<polyline class="st1" points="407.7,276.4 406.3,279.1 416.5,282.2 	"/>
	<path class="st1" d="M452.7,314.3c0,0,1-7,8.8-5.1c0,0,6.7,1.6,4.1,9.5c0,0-3.8,6-9.6,2.8c0,0-2.9-1.9-2.9-2.5"/>
	<path class="st1" d="M449.4,310.3c0,0,3.2-9.6,15.1-5.3c0,0,7.6,2.5,6.1,13.2c0,0-2.3,9.2-11.8,8.5c0,0-5.3-0.6-8.8-4.9"/>
</g>
<path id="SVGID_x5F_2_x5F_" class="st2" d="M501,288.6c-16.9,9.5-69.9-7.2-74.9-17"/>
<text class="st3 st4"><textPath  xlink:href="#SVGID_x5F_2_x5F_" startOffset="19.397%">
 </textPath>
</text>
<text transform="matrix(1 0 0 1 367.1668 245.7795)" class="st5 st6">VS</text>
<text transform="matrix(0.9181 0.3963 -0.3963 0.9181 292.8428 99.5433)" class="st7 st5 st8">NFL SUPERBOWLs 21 Century</text>
<text transform="matrix(0.9181 0.3963 -0.3963 0.9181 202.2935 281.4297)" class="st7 st5 st8">NFL SUPERBOWLs 21 Century</text>
</svg>
